<svg width="20" height="21" viewBox="0 0 20 21" fill="none" xmlns="http://www.w3.org/2000/svg">
<path fill-rule="evenodd" clip-rule="evenodd" d="M7.49999 3.74939C6.20706 3.74939 4.96709 4.263 4.05285 5.17724C3.13861 6.09148 2.625 7.33145 2.625 8.62438V13.4994H7.50001C8.79294 13.4994 10.0329 12.9858 10.9471 12.0715C11.8614 11.1573 12.375 9.91733 12.375 8.6244V8.62439C12.375 7.33146 11.8614 6.09148 10.9471 5.17724C10.0329 4.263 8.79293 3.74939 7.5 3.74939H7.49999ZM7.50001 14.9994H2.34375C2.02052 14.9994 1.71052 14.871 1.48196 14.6424C1.2534 14.4139 1.125 14.1039 1.125 13.7806V8.62437C1.125 6.93362 1.79665 5.31212 2.99219 4.11658C4.18773 2.92104 5.80924 2.24939 7.49999 2.24939H7.5C9.19076 2.24939 10.8123 2.92104 12.0078 4.11658C13.2033 5.31213 13.875 6.93363 13.875 8.62439V8.6244C13.875 10.3152 13.2034 11.9367 12.0078 13.1322C10.8123 14.3277 9.19076 14.9994 7.50001 14.9994Z" fill="#9594A5"/>
<path fill-rule="evenodd" clip-rule="evenodd" d="M12.0585 6.71661C12.0811 6.30302 12.4348 5.98609 12.8484 6.00874C14.4764 6.09789 16.0084 6.80741 17.1293 7.99141C18.2503 9.17541 18.875 10.7439 18.875 12.3744L18.875 17.5306C18.875 17.8539 18.7466 18.1638 18.518 18.3924C18.2895 18.621 17.9795 18.7494 17.6562 18.7494H12.5C11.1816 18.7494 9.89554 18.3407 8.81893 17.5797C7.74231 16.8187 6.92802 15.7427 6.48813 14.4998C6.34993 14.1094 6.55443 13.6808 6.94491 13.5426C7.33539 13.4044 7.76397 13.6089 7.90217 13.9994C8.2386 14.9499 8.86136 15.7728 9.68475 16.3548C10.5081 16.9368 11.4917 17.2494 12.5 17.2494H17.375L17.375 12.3744C17.375 12.3744 17.375 12.3744 17.375 12.3744C17.375 11.1275 16.8972 9.92809 16.04 9.02267C15.1828 8.11725 14.0113 7.57467 12.7663 7.5065C12.3527 7.48385 12.0358 7.1302 12.0585 6.71661Z" fill="#9594A5"/>
</svg>
